<?xml version="1.0" standalone="no"?><svg xmlns="http://www.w3.org/2000/svg" viewBox="0 0 1440 320"><path fill="#d87093da" fill-opacity="1" d="M0,224L30,197.3C60,171,120,117,180,90.7C240,64,300,64,360,101.3C420,139,480,213,540,245.3C600,277,660,267,720,224C780,181,840,107,900,85.3C960,64,1020,96,1080,122.7C1140,149,1200,171,1260,192C1320,213,1380,235,1410,245.3L1440,256L1440,320L1410,320C1380,320,1320,320,1260,320C1200,320,1140,320,1080,320C1020,320,960,320,900,320C840,320,780,320,720,320C660,320,600,320,540,320C480,320,420,320,360,320C300,320,240,320,180,320C120,320,60,320,30,320L0,320Z"></path></svg>